<?xml version="1.0" standalone="no"?>
<!DOCTYPE svg PUBLIC "-//W3C//DTD SVG 20010904//EN"
 "http://www.w3.org/TR/2001/REC-SVG-20010904/DTD/svg10.dtd">
<svg version="1.0" xmlns="http://www.w3.org/2000/svg"
 width="700.000000pt" height="700.000000pt" viewBox="0 0 700.000000 700.000000"
 preserveAspectRatio="xMidYMid meet">
<metadata>
Created by potrace 1.11, written by Peter Selinger 2001-2013
</metadata>
<g transform="translate(0.000000,700.000000) scale(0.100000,-0.100000)"
fill="#000000" stroke="none">
<path d="M3440 6990 c-57 -16 -95 -48 -295 -255 -238 -245 -258 -275 -252
-370 4 -61 57 -176 342 -745 l58 -115 2 -165 c1 -91 -1 -171 -3 -177 -2 -7
-64 66 -137 163 -72 96 -147 184 -164 195 -64 39 -174 34 -226 -9 -70 -58
-100 -150 -75 -227 7 -21 146 -216 309 -434 l296 -396 -1 -130 c-1 -71 -2
-137 -3 -146 -2 -26 -185 -213 -202 -206 -8 4 -81 46 -164 95 l-149 88 -138
315 c-76 172 -145 330 -154 349 -94 220 -111 254 -142 285 -19 19 -50 40 -70
46 -84 28 -199 -21 -239 -101 -36 -70 -30 -129 26 -253 12 -26 30 -67 41 -91
11 -25 20 -47 20 -50 0 -3 14 -35 30 -71 35 -76 38 -95 13 -74 -10 8 -43 28
-73 44 -30 16 -91 50 -135 75 -90 52 -52 1 -393 516 -95 144 -185 274 -200
289 -58 59 -130 69 -247 34 -39 -11 -81 -22 -95 -25 -14 -3 -63 -16 -110 -28
-78 -22 -130 -36 -155 -41 -85 -21 -193 -58 -219 -76 -50 -34 -80 -103 -73
-170 6 -62 4 -53 52 -229 20 -74 47 -175 60 -225 57 -218 68 -241 136 -276 48
-24 56 -25 419 -44 80 -4 263 -16 315 -20 28 -2 90 -7 138 -10 87 -6 91 -7
215 -77 70 -39 138 -78 152 -86 l25 -16 -25 -6 c-14 -4 -55 -10 -90 -14 -36
-3 -74 -8 -85 -10 -11 -2 -42 -7 -70 -10 -113 -15 -131 -18 -163 -33 -60 -28
-115 -129 -106 -193 17 -113 111 -199 203 -185 38 5 83 10 171 20 30 3 71 7
90 10 19 2 58 7 85 10 28 3 66 8 85 10 19 2 58 7 85 9 28 3 106 12 175 20 255
30 237 31 310 -14 36 -21 87 -51 114 -65 47 -26 48 -27 27 -41 -32 -23 -63
-92 -66 -146 -3 -54 30 -136 63 -160 19 -13 14 -18 -93 -81 -104 -63 -116 -67
-156 -63 -24 3 -89 10 -144 16 -55 6 -111 13 -125 15 -14 2 -56 7 -95 10 -38
4 -78 9 -90 11 -11 2 -67 9 -125 14 -58 6 -118 13 -135 15 -61 9 -122 15 -195
21 -66 5 -81 3 -120 -18 -116 -60 -142 -217 -52 -311 42 -45 78 -58 191 -73
58 -8 122 -16 141 -19 53 -8 184 -24 195 -25 9 0 -81 -54 -225 -133 -30 -16
-60 -34 -66 -38 -6 -5 -53 -11 -105 -14 -52 -3 -125 -7 -164 -10 -183 -12
-236 -16 -315 -20 -336 -20 -343 -21 -385 -41 -70 -33 -82 -59 -150 -314 -20
-74 -50 -187 -67 -250 -42 -150 -44 -239 -8 -292 14 -20 41 -46 60 -56 19 -11
148 -50 285 -86 138 -37 270 -73 294 -81 68 -21 161 -15 202 14 43 29 59 52
324 454 177 270 226 339 255 353 19 11 88 49 153 86 64 37 117 64 117 60 0 -4
-36 -91 -80 -194 -44 -102 -80 -197 -80 -210 0 -72 61 -163 128 -190 92 -37
208 5 251 90 10 20 89 199 176 397 199 457 199 457 227 474 64 39 262 153 282
162 24 11 44 -6 172 -149 l39 -43 0 -144 -1 -143 -279 -373 c-154 -206 -287
-382 -296 -392 -36 -40 -48 -133 -26 -194 16 -43 71 -100 116 -119 50 -22 140
-13 183 17 41 29 43 31 180 216 62 84 115 152 118 153 3 0 5 -80 4 -177 l-1
-178 -73 -145 c-231 -460 -322 -656 -327 -706 -6 -56 9 -115 38 -153 43 -54
436 -454 465 -472 44 -27 164 -27 208 0 17 11 121 113 231 227 110 114 207
214 216 223 37 37 57 95 55 162 -2 61 -10 80 -165 394 -90 182 -179 364 -199
405 l-36 75 -1 173 c0 94 2 172 5 172 3 -1 63 -78 133 -173 74 -100 143 -182
164 -196 54 -35 137 -40 194 -11 52 27 75 51 100 105 21 46 23 84 8 138 -6 25
-118 182 -307 435 l-297 397 1 130 c1 72 2 137 3 145 0 9 43 60 95 115 l93 99
102 -60 c56 -32 114 -65 129 -73 84 -44 97 -58 131 -137 33 -77 83 -188 101
-229 47 -101 230 -528 230 -536 0 -23 88 -96 129 -106 102 -26 212 29 245 122
25 70 10 127 -89 340 -18 39 -55 132 -55 139 0 2 42 -19 93 -49 50 -29 119
-67 152 -85 58 -30 65 -39 170 -198 262 -401 389 -588 409 -605 54 -48 130
-58 226 -31 30 8 63 17 72 19 9 2 51 13 94 25 42 12 88 24 102 26 14 3 29 7
34 10 7 5 183 52 220 59 59 12 121 68 138 125 18 63 11 103 -74 419 -91 336
-102 363 -172 396 -20 9 -64 19 -98 21 -33 2 -90 6 -126 8 -36 3 -105 8 -155
11 -49 3 -124 7 -165 10 -41 3 -118 7 -170 10 -137 7 -222 15 -243 21 -10 3
-62 31 -116 62 -53 32 -118 68 -144 82 -25 13 -45 25 -44 27 3 3 48 10 117 18
30 4 66 8 80 10 14 2 50 7 80 10 156 19 202 42 241 122 45 93 17 197 -69 258
-46 32 -105 39 -182 24 -19 -4 -65 -10 -101 -14 -36 -3 -76 -7 -90 -10 -13 -2
-53 -6 -89 -9 -36 -4 -75 -8 -85 -10 -11 -2 -49 -7 -85 -11 -58 -6 -92 -9
-180 -20 -242 -29 -219 -32 -346 42 -105 62 -112 68 -93 81 81 56 81 248 0
304 -22 16 -23 14 53 58 17 9 59 34 93 54 53 31 69 36 105 32 24 -3 68 -8 98
-11 30 -3 69 -7 85 -9 17 -2 59 -7 95 -11 36 -4 76 -8 90 -10 14 -2 50 -6 80
-10 30 -3 71 -7 90 -10 19 -2 60 -7 90 -11 30 -3 69 -7 85 -9 17 -2 57 -6 90
-10 33 -3 73 -8 89 -11 89 -16 197 90 199 194 0 61 -32 132 -74 164 -41 30
-56 36 -117 43 -26 4 -92 13 -147 20 -55 8 -122 17 -150 21 -27 3 -51 7 -52 8
-1 0 68 40 152 88 175 99 124 88 550 113 55 3 125 8 155 10 30 2 105 7 165 10
175 10 204 14 246 35 71 37 78 55 204 535 42 157 46 183 42 231 -6 62 -39 116
-87 143 -30 16 -140 48 -562 160 -124 33 -190 25 -248 -31 -14 -14 -85 -114
-157 -224 -73 -109 -183 -275 -245 -369 l-113 -169 -152 -87 c-84 -48 -153
-84 -153 -80 0 7 53 133 92 222 61 135 70 168 64 214 -9 55 -57 121 -108 148
-49 25 -132 26 -179 4 -55 -27 -81 -63 -128 -172 -24 -55 -53 -122 -66 -150
-48 -110 -70 -159 -168 -384 l-102 -235 -160 -93 c-159 -92 -180 -102 -187
-84 -1 5 -21 29 -43 53 -23 24 -61 65 -85 91 l-44 49 -1 141 -1 142 299 399
c264 352 300 404 309 450 33 156 -107 281 -262 235 -54 -16 -73 -35 -210 -219
-67 -91 -126 -168 -129 -172 -3 -4 -6 75 -5 175 l1 182 63 125 c261 520 333
675 338 732 8 98 -16 132 -270 389 -236 240 -234 238 -333 243 -22 2 -51 0
-65 -4z"/>
</g>
</svg>
